<svg id="Capa_1" enable-background="new 0 0 497 497" height="512" viewBox="0 0 497 497" width="512" xmlns="http://www.w3.org/2000/svg"><g><path d="m278.5 166 128.5 225h22.5c4.142 0 7.5-3.358 7.5-7.5v-217.5z" fill="#408d69"/><path d="m0 173.5v210c0 4.142 3.358 7.5 7.5 7.5h399.5v-225h-399.5c-4.142 0-7.5 3.358-7.5 7.5z" fill="#53a143"/><path d="m308.5 136 128.5 225h22.5c4.142 0 7.5-3.358 7.5-7.5v-217.5z" fill="#53a143"/><path d="m30 143.5v210c0 4.142 3.358 7.5 7.5 7.5h399.5v-225h-399.5c-4.142 0-7.5 3.358-7.5 7.5z" fill="#60ba4d"/><path d="m467 106-60 112.5 60 112.5h22.5c4.142 0 7.5-3.358 7.5-7.5v-210c0-4.142-3.358-7.5-7.5-7.5z" fill="#60ba4d"/><path d="m60 113.5v210c0 4.142 3.358 7.5 7.5 7.5h399.5v-60l-60-52.5 60-52.5v-60h-399.5c-4.142 0-7.5 3.358-7.5 7.5z" fill="#85cf75"/><path d="m90 271v-105c0-16.569 13.431-30 30-30h317c16.569 0 30 13.431 30 30v105c0 16.569-13.431 30-30 30h-317c-16.569 0-30-13.432-30-30z" fill="#ffeac3"/><path d="m210 204.5v28c0 37.832 30.669 68.5 68.5 68.5 37.832 0 68.5-30.669 68.5-68.5v-28c0-37.832-30.669-68.5-68.5-68.5-37.832 0-68.5 30.668-68.5 68.5z" fill="#53a143"/><path d="m278.5 166v105c21.229 0 38.5-17.271 38.5-38.5v-28c0-21.229-17.271-38.5-38.5-38.5z" fill="#60ba4d"/><g fill="#85cf75"><path d="m287 232.5v-28c0-21.229-3.813-38.5-8.5-38.5-21.229 0-38.5 17.271-38.5 38.5v28c0 21.229 17.271 38.5 38.5 38.5 4.687 0 8.5-17.272 8.5-38.5z"/><circle cx="150" cy="218.5" r="30"/><circle cx="407" cy="218.5" r="30"/></g></g></svg>